<?xml version="1.0" encoding="UTF-8"?>
<svg width="132px" height="132px" viewBox="0 0 132 132" version="1.1" xmlns="http://www.w3.org/2000/svg" xmlns:xlink="http://www.w3.org/1999/xlink">
    <!-- Generator: Sketch 55.2 (78181) - https://sketchapp.com -->
    <title>noun_complete_2568411</title>
    <desc>Created with Sketch.</desc>
    <g id="Page-1" stroke="none" stroke-width="1" fill="none" fill-rule="evenodd">
        <g id="noun_complete_2568411" fill="#000000" fill-rule="nonzero">
            <path d="M66,0.7451172 C30.0185547,0.7451172 0.7451172,30.0185547 0.7451172,66 C0.7451172,101.981445 30.0185547,131.254883 66,131.254883 C101.981445,131.254883 131.254883,101.981445 131.254883,66 C131.254883,30.0185547 101.981445,0.7451172 66,0.7451172 Z M66,129.254883 C31.1210938,129.254883 2.7451172,100.878906 2.7451172,66 C2.7451172,31.1210938 31.1210938,2.7451172 66,2.7451172 C100.878906,2.7451172 129.254883,31.1210938 129.254883,66 C129.254883,100.878906 100.878906,129.254883 66,129.254883 Z" id="Shape"></path>
            <path d="M66,10.7451172 C35.5322266,10.7451172 10.7451172,35.5322266 10.7451172,66 C10.7451172,96.4677734 35.5322266,121.254883 66,121.254883 C96.4677734,121.254883 121.254883,96.4677734 121.254883,66 C121.254883,35.5322266 96.4677734,10.7451172 66,10.7451172 Z M66,119.254883 C36.6347656,119.254883 12.7451172,95.3652344 12.7451172,66 C12.7451172,36.6347656 36.6347656,12.7451172 66,12.7451172 C95.3652344,12.7451172 119.254883,36.6347656 119.254883,66 C119.254883,95.3652344 95.3652344,119.254883 66,119.254883 Z" id="Shape"></path>
            <path d="M92.8125,41.125 C91.2089844,41.125 89.7021484,41.7490234 88.5703125,42.8818359 L55.0625,76.3896484 L43.4296875,64.7568359 C42.2978516,63.6240234 40.7910156,63 39.1875,63 C37.5839844,63 36.0771484,63.6240234 34.9453125,64.7568359 C33.8115234,65.890625 33.1875,67.3974609 33.1875,69 C33.1875,70.6025391 33.8115234,72.109375 34.9453125,73.2421875 L50.8203125,89.1171875 C51.9521484,90.2509766 53.4589844,90.875 55.0625,90.875 C56.6660156,90.875 58.1728516,90.2509766 59.3046875,89.1171875 L97.0546875,51.3671875 C98.1884766,50.234375 98.8125,48.7275391 98.8125,47.125 C98.8125,45.5224609 98.1884766,44.015625 97.0546875,42.8818359 C95.9228516,41.7490234 94.4160156,41.125 92.8125,41.125 Z M95.640625,49.953125 L57.890625,87.703125 C56.3808594,89.2148438 53.7441406,89.2148438 52.234375,87.703125 L36.359375,71.828125 C35.6035156,71.0722656 35.1875,70.0683594 35.1875,69 C35.1875,67.9316406 35.6035156,66.9267578 36.359375,66.1708984 C37.1142578,65.4160156 38.1191406,65 39.1875,65 C40.2558594,65 41.2607422,65.4160156 42.015625,66.1708984 L54.3554688,78.5107422 C54.7460938,78.9013672 55.3789063,78.9013672 55.7695313,78.5107422 L89.984375,44.2958984 C90.7392578,43.5410156 91.7441406,43.125 92.8125,43.125 C93.8808594,43.125 94.8857422,43.5410156 95.640625,44.2958984 C96.3964844,45.0517578 96.8125,46.0566406 96.8125,47.125 C96.8125,48.1933594 96.3964844,49.1972656 95.640625,49.953125 Z" id="Shape"></path>
        </g>
    </g>
</svg>